<svg width="1440" height="971" viewBox="0 0 1440 971" fill="none" xmlns="http://www.w3.org/2000/svg">
<g clip-path="url(#clip0_27_451)">
<path d="M-170.319 -103.187C-152.528 -101.184 -134.745 -99.275 -116.969 -97.4594C-99.1787 -95.9858 -81.388 -94.7401 -63.5973 -93.7224C-45.8218 -93.2339 -28.0463 -93.0385 -10.2708 -93.1362C7.5047 -93.8038 25.2878 -94.7319 43.0785 -95.9206C60.8693 -97.5245 78.6524 -99.2709 96.4279 -101.16C114.219 -103.195 132.009 -105.214 149.8 -107.217C167.576 -109.033 185.359 -110.677 203.149 -112.151C220.925 -113.169 238.708 -113.918 256.499 -114.398C274.289 -114.292 292.073 -113.906 309.848 -113.238C327.639 -112.049 345.429 -110.653 363.22 -109.049C380.996 -107.152 398.779 -105.19 416.57 -103.163C434.345 -101.16 452.128 -99.2546 469.919 -97.4472C487.71 -95.9735 505.493 -94.7279 523.268 -93.7102C541.059 -93.2298 558.85 -93.0425 576.64 -93.1484C594.416 -93.816 612.199 -94.7441 629.99 -95.9328C647.765 -97.5449 665.548 -99.2994 683.339 -101.196C701.13 -103.224 718.913 -105.239 736.688 -107.242C754.479 -109.049 772.27 -110.69 790.06 -112.163C807.836 -113.181 825.619 -113.926 843.41 -114.398C861.185 -114.292 878.968 -113.901 896.759 -113.226C914.55 -112.037 932.333 -110.637 950.108 -109.025C967.899 -107.128 985.69 -105.165 1003.48 -103.138C1021.26 -101.135 1039.04 -99.2302 1056.83 -97.4228C1074.61 -95.9491 1092.39 -94.7075 1110.18 -93.6979C1127.97 -93.2257 1145.75 -93.0425 1163.53 -93.1484C1181.32 -93.8241 1199.11 -94.7604 1216.9 -95.9573C1234.68 -97.5693 1252.46 -99.3238 1270.25 -101.221C1288.03 -103.248 1305.81 -105.263 1323.6 -107.266C1341.39 -109.073 1359.17 -110.714 1376.95 -112.188C1394.74 -113.189 1412.53 -113.926 1430.32 -114.398C1448.1 -114.292 1465.88 -113.897 1483.67 -113.214C1501.45 -112.017 1519.23 -110.612 1537.02 -109C1539.07 -96.8773 1542.31 -84.7584 1546.72 -72.6436C1553.14 -60.5207 1560.32 -48.3977 1568.25 -36.2748C1577.11 -24.1518 1586.08 -12.033 1595.16 0.0818405C1603.78 12.2048 1611.83 24.3277 1619.34 36.4507C1625.14 48.5736 1629.86 60.6925 1633.51 72.8073C1634.73 84.9302 1634.7 97.0532 1633.42 109.176C1629.71 121.299 1624.93 133.422 1619.09 145.545C1611.57 157.668 1603.49 169.791 1594.84 181.914C1585.76 194.037 1576.79 206.16 1567.95 218.283C1560.04 230.397 1552.89 242.516 1546.52 254.639C1542.16 266.762 1538.99 278.885 1537 291.008C1537.5 303.131 1539.24 315.254 1542.22 327.377C1547.44 339.5 1553.59 351.623 1560.65 363.746C1569.02 375.86 1577.71 387.979 1586.74 400.102C1595.72 412.225 1604.35 424.348 1612.63 436.471C1619.54 448.594 1625.5 460.717 1630.52 472.84C1633.28 484.963 1634.79 497.086 1635.07 509.209C1632.83 521.332 1629.43 533.451 1624.86 545.565C1618.32 557.688 1611.04 569.811 1603.02 581.934C1594.13 594.057 1585.15 606.18 1576.08 618.303C1567.51 630.426 1559.53 642.549 1552.13 654.672C1546.47 666.795 1541.9 678.914 1538.41 691.028C1537.36 703.151 1537.57 715.274 1539.03 727.397C1542.91 739.52 1547.83 751.643 1553.8 763.766C1561.44 775.889 1569.6 788.012 1578.29 800.135C1587.38 812.258 1596.32 824.377 1605.12 836.492C1612.94 848.614 1619.98 860.737 1626.23 872.86C1630.42 884.983 1633.42 897.106 1635.25 909.229C1634.56 921.352 1632.65 933.475 1629.5 945.598C1624.12 957.721 1617.85 969.844 1610.69 981.967C1602.25 994.082 1593.52 1006.2 1584.48 1018.32C1575.52 1030.45 1566.94 1042.57 1558.75 1054.69C1540.75 1050.44 1522.75 1046.74 1504.76 1043.59C1486.76 1041.8 1468.76 1040.76 1450.77 1040.48C1432.77 1041.71 1414.77 1043.65 1396.79 1046.31C1378.78 1050.19 1360.79 1054.51 1342.8 1059.27C1324.79 1064.55 1306.8 1069.86 1288.81 1075.22C1270.81 1080.22 1252.81 1084.84 1234.82 1089.09C1216.82 1092.24 1198.82 1094.7 1180.83 1096.48C1162.83 1096.77 1144.83 1096.29 1126.84 1095.05C1108.84 1092.38 1090.84 1089.11 1072.86 1085.24C1054.85 1080.46 1036.85 1075.44 1018.84 1070.17C1000.86 1064.81 982.859 1059.63 964.855 1054.63C946.867 1050.39 928.871 1046.7 910.867 1043.57C892.878 1041.78 874.882 1040.75 856.878 1040.48C838.89 1041.73 820.894 1043.69 802.89 1046.36C784.901 1050.24 766.905 1054.56 748.901 1059.33C730.913 1064.62 712.917 1069.94 694.913 1075.29C676.924 1080.29 658.928 1084.91 640.924 1089.14C622.936 1092.28 604.94 1094.73 586.936 1096.5C568.947 1096.77 550.951 1096.28 532.947 1095.02C514.959 1092.34 496.963 1089.06 478.959 1085.17C460.97 1080.4 442.974 1075.38 424.97 1070.09C406.982 1064.74 388.986 1059.57 370.982 1054.57C352.993 1050.34 334.997 1046.66 316.993 1043.53C299.005 1041.76 281.009 1040.75 263.005 1040.49C245.001 1041.75 227.005 1043.72 209.016 1046.4C191.012 1050.29 173.016 1054.63 155.028 1059.41C137.024 1064.69 119.028 1070.01 101.039 1075.36C83.0354 1080.35 65.0392 1084.97 47.0506 1089.19C29.0468 1092.31 11.0507 1094.75 -6.93787 1096.52C-24.9264 1096.77 -42.915 1096.26 -60.9036 1094.99C-78.9073 1092.31 -96.9035 1089.02 -114.892 1085.13C-132.896 1080.34 -150.892 1075.3 -168.881 1070.02C-168.348 1057.8 -167.785 1045.58 -167.191 1033.36C-166.598 1021.14 -166.027 1008.92 -165.479 996.695C-165.007 984.474 -164.589 972.254 -164.224 960.033C-164.026 947.813 -163.904 935.592 -163.858 923.371C-163.98 911.151 -164.178 898.93 -164.452 886.709C-164.863 874.489 -165.327 862.268 -165.844 850.047C-166.423 837.827 -167.009 825.606 -167.602 813.385C-168.181 801.165 -168.721 788.944 -169.223 776.724C-169.603 764.503 -169.923 752.278 -170.182 740.049C-170.273 727.829 -170.288 715.608 -170.227 703.387C-169.999 691.167 -169.695 678.946 -169.314 666.726C-168.827 654.505 -168.302 642.284 -167.739 630.064C-167.146 617.843 -166.56 605.622 -165.981 593.402C-165.449 581.181 -164.969 568.96 -164.543 556.74C-164.239 544.519 -164.011 532.298 -163.858 520.078C-163.889 507.857 -163.988 495.637 -164.155 483.416C-164.49 471.195 -164.886 458.975 -165.342 446.754C-165.89 434.525 -166.461 422.301 -167.054 410.08C-167.648 397.859 -168.219 385.639 -168.766 373.418C-169.223 361.197 -169.626 348.977 -169.976 336.756C-170.174 324.535 -170.288 312.315 -170.319 300.094C-170.182 287.873 -169.976 275.653 -169.702 263.432C-169.276 251.212 -168.805 238.991 -168.287 226.77C-167.709 214.55 -167.115 202.329 -166.506 190.108C-165.943 177.888 -165.411 165.667 -164.909 153.446C-164.528 141.226 -164.216 129.005 -163.973 116.784C-163.896 104.556 -163.896 92.331 -163.973 80.1104C-164.216 67.8897 -164.528 55.6691 -164.909 43.4484C-165.396 31.2278 -165.921 19.0071 -166.484 6.78651C-167.092 -5.42599 -167.686 -17.6426 -168.264 -29.8632C-168.782 -42.0839 -169.253 -54.3045 -169.68 -66.5251C-169.969 -78.7458 -170.182 -90.9664 -170.319 -103.187Z" fill="url(#paint0_linear_27_451)"/>
<g filter="url(#filter0_f_27_451)">
<path d="M-170.319 -103.187C-170.182 -90.9664 -169.969 -78.7458 -169.68 -66.5251C-169.253 -54.3045 -168.782 -42.0839 -168.264 -29.8632C-167.686 -17.6426 -167.092 -5.42599 -166.484 6.7865C-165.921 19.0071 -165.395 31.2278 -164.908 43.4484C-164.528 55.6691 -164.216 67.8897 -163.973 80.1104C-163.896 92.331 -163.896 104.556 -163.973 116.785C-164.216 129.005 -164.528 141.226 -164.908 153.446C-165.411 165.667 -165.943 177.888 -166.506 190.108C-167.115 202.329 -167.709 214.55 -168.287 226.77C-168.804 238.991 -169.276 251.212 -169.702 263.432C-169.976 275.653 -170.182 287.874 -170.319 300.094C-170.288 312.315 -170.174 324.535 -169.976 336.756C-169.626 348.977 -169.223 361.197 -168.766 373.418C-168.219 385.639 -167.648 397.859 -167.054 410.08C-166.461 422.301 -165.89 434.525 -165.342 446.754C-164.886 458.975 -164.49 471.195 -164.155 483.416C-139.242 488.203 -114.321 492.608 -89.3931 496.63C-64.4647 499.3 -39.544 501.104 -14.6309 502.04C-4.29739 499.19 12.4432 493.166 35.5909 483.966C50.5966 476.996 65.549 469.783 80.4482 462.325C95.2104 454.509 109.919 446.591 124.575 438.572C139.094 430.511 153.551 422.52 167.948 414.599C182.239 406.97 196.476 399.553 210.66 392.347C224.768 385.679 238.83 379.325 252.846 373.284C266.832 367.902 280.788 362.862 294.713 358.165C308.638 354.11 322.563 350.344 336.488 346.868C350.459 343.872 364.453 341.055 378.469 338.417C392.562 335.999 406.7 333.609 420.884 331.248C435.205 328.806 449.602 326.245 464.075 323.567C478.7 320.522 493.424 317.236 508.247 313.711C523.253 309.632 538.373 305.252 553.607 300.57C569.054 295.262 584.607 289.657 600.267 283.754C616.186 277.306 632.212 270.625 648.343 263.713C664.688 256.443 681.147 249.062 697.721 241.572C714.507 233.992 731.377 226.436 748.331 218.905C765.467 211.562 782.672 204.373 799.945 197.338C817.34 190.719 834.773 184.348 852.244 178.226C869.776 172.64 887.324 167.34 904.886 162.325C922.418 157.855 939.935 153.642 957.436 149.685C974.847 146.168 992.196 142.817 1009.48 139.634C1026.61 136.687 1043.64 133.797 1060.57 130.963C1077.28 128.097 1093.87 125.162 1110.34 122.158C1126.52 118.901 1142.54 115.461 1158.42 111.838C1173.95 107.792 1189.32 103.501 1204.53 98.9665C1219.38 93.9268 1234.05 88.6347 1248.54 83.0902C1262.68 77.0817 1276.63 70.8696 1290.41 64.4539C1303.85 57.7126 1317.12 50.8574 1330.22 43.8881C1343.02 36.7967 1355.67 29.7053 1368.18 22.6139C1380.43 15.6283 1392.58 8.74458 1404.62 1.96257C1416.47 -4.50191 1428.27 -10.7832 1440 -16.8813C1430.35 -30.942 1421.2 -44.9986 1412.56 -59.0511C1405.82 -73.1117 1400.39 -87.1724 1396.26 -101.233C1395.17 -115.286 1395.64 -129.342 1397.7 -143.403C1402.69 -157.455 1408.89 -171.512 1416.28 -185.573C1397.65 -184.473 1379.03 -183.175 1360.42 -181.677C1341.79 -179.91 1323.17 -178.082 1304.56 -176.193C1285.93 -174.345 1267.31 -172.603 1248.68 -170.966C1230.06 -169.672 1211.44 -168.609 1192.82 -167.779C1174.19 -167.478 1155.57 -167.453 1136.96 -167.706C1118.33 -168.495 1099.7 -169.517 1081.07 -170.771C1062.46 -172.383 1043.84 -174.105 1025.21 -175.937C1006.6 -177.826 987.98 -179.666 969.353 -181.457C950.725 -182.988 932.105 -184.319 913.492 -185.45C894.864 -186.102 876.237 -186.476 857.609 -186.574C838.996 -186.118 820.376 -185.406 801.749 -184.437C783.136 -183.036 764.516 -181.481 745.888 -179.772C727.26 -177.899 708.64 -176.026 690.028 -174.154C671.4 -172.444 652.772 -170.889 634.144 -169.489C615.532 -168.52 596.912 -167.812 578.284 -167.364C559.656 -167.47 541.036 -167.844 522.424 -168.487C503.796 -169.627 485.176 -170.962 466.563 -172.493C447.935 -174.284 429.308 -176.124 410.68 -178.013C392.067 -179.845 373.447 -181.567 354.819 -183.179C336.192 -184.433 317.572 -185.455 298.959 -186.244C280.331 -186.489 261.711 -186.46 243.099 -186.159C224.471 -185.32 205.843 -184.254 187.215 -182.959C168.603 -181.323 149.983 -179.58 131.355 -177.732C112.727 -175.843 94.1071 -174.016 75.4945 -172.249C56.8668 -170.751 38.2466 -169.456 19.6341 -168.365C1.00635 -167.763 -17.6138 -167.437 -36.2263 -167.388C-54.8389 -167.893 -73.459 -168.654 -92.0868 -169.672C-110.715 -171.105 -129.335 -172.688 -147.947 -174.423C-166.575 -176.303 -185.203 -178.176 -203.83 -180.04C-222.443 -181.726 -241.063 -183.248 -259.691 -184.608C-278.303 -185.536 -296.924 -186.2 -315.551 -186.598C-334.986 -183.415 -336.667 -177.406 -320.596 -168.573C-303.795 -162.304 -287.031 -155.794 -270.306 -149.045C-253.626 -141.856 -236.962 -134.484 -220.312 -126.928C-203.663 -119.096 -186.999 -111.182 -170.319 -103.187Z" fill="url(#paint1_linear_27_451)"/>
</g>
<g filter="url(#filter1_f_27_451)">
<path d="M1480.95 465.073C1505.88 463.713 1530.81 463.282 1555.74 463.778C1580.67 466.066 1605.6 469.087 1630.52 472.84C1633.28 484.963 1634.79 497.086 1635.07 509.209C1632.83 521.332 1629.43 533.451 1624.86 545.565C1618.32 557.688 1611.04 569.811 1603.02 581.934C1594.13 594.057 1585.15 606.18 1576.08 618.303C1567.51 630.426 1559.53 642.549 1552.13 654.672C1546.47 666.795 1541.9 678.914 1538.41 691.028C1537.36 703.151 1537.57 715.274 1539.03 727.397C1542.91 739.52 1547.83 751.643 1553.8 763.766C1561.44 775.889 1569.6 788.012 1578.29 800.135C1587.38 812.258 1596.32 824.377 1605.12 836.492C1612.94 848.614 1619.98 860.737 1626.23 872.86C1630.42 884.983 1633.42 897.106 1635.25 909.229C1634.56 921.352 1632.65 933.475 1629.5 945.598C1624.12 957.721 1617.85 969.844 1610.69 981.967C1602.25 994.082 1593.52 1006.2 1584.48 1018.32C1575.52 1030.45 1566.94 1042.57 1558.75 1054.69C1542.22 1050.75 1525.7 1047.27 1509.19 1044.24C1492.66 1042.33 1476.14 1041.03 1459.63 1040.37C1443.1 1040.99 1426.58 1042.23 1410.07 1044.1C1393.54 1047.09 1377.02 1050.54 1360.51 1054.46C1343.98 1059.02 1327.46 1063.75 1310.95 1068.64C1294.42 1073.54 1277.91 1078.27 1261.39 1082.83C1244.87 1086.75 1228.35 1090.22 1211.83 1093.23C1195.31 1095.12 1178.79 1096.39 1162.27 1097.02C1145.75 1096.38 1129.23 1095.11 1112.71 1093.21C1096.19 1090.19 1079.67 1086.72 1063.15 1082.79C1046.63 1078.23 1030.11 1073.49 1013.59 1068.59C997.066 1063.7 980.546 1058.97 964.034 1054.41C947.506 1050.51 930.979 1047.07 914.451 1044.08C897.939 1042.22 881.419 1040.98 864.891 1040.37C848.379 1041.04 831.859 1042.34 815.331 1044.26C798.819 1047.3 782.299 1050.79 765.771 1054.74C749.259 1059.32 732.739 1064.06 716.211 1068.97C699.699 1073.85 683.179 1078.57 666.652 1083.11C650.139 1087 633.619 1090.43 617.092 1093.39C600.579 1095.23 584.059 1096.43 567.532 1097.02C551.02 1096.32 534.5 1094.99 517.972 1093.04C501.46 1089.98 484.94 1086.47 468.412 1082.51C451.9 1077.92 435.38 1073.17 418.852 1068.26C402.34 1063.38 385.82 1058.67 369.292 1054.13C352.78 1050.26 336.26 1046.86 319.733 1043.92C303.22 1042.11 286.7 1040.92 270.173 1040.37C253.66 1041.1 237.14 1042.46 220.613 1044.43C204.101 1047.51 187.581 1051.04 171.053 1055.02C154.541 1059.62 138.021 1064.38 121.493 1069.29C104.966 1074.17 88.4456 1078.87 71.9333 1083.39C55.4057 1087.24 38.8858 1090.63 22.3734 1093.55C-2.02224 1091.47 -17.7432 1084.36 -24.7895 1072.23C-23.9372 1063.97 -23.0774 1055.7 -22.2099 1047.44C-21.3881 1039.17 -20.5815 1030.91 -19.7901 1022.65C-18.39 1010.26 -16.9594 1002 -15.4984 997.868C4.27071 991.916 24.0323 985.223 43.7862 977.79C63.5401 969.087 83.2713 959.911 102.98 950.263C122.612 940.086 142.206 929.868 161.762 919.61C181.212 909.726 200.6 900.233 219.928 891.13C239.119 883.168 258.234 875.889 277.272 869.294C296.128 864.198 314.901 859.842 333.589 856.227C352.08 853.947 370.487 852.213 388.811 851.024C406.936 850.56 424.97 850.255 442.913 850.108C460.689 849.848 478.388 849.315 496.011 848.509C513.482 846.799 530.885 844.491 548.219 841.584C565.477 837.302 582.69 832.299 599.857 826.575C616.978 819.492 634.084 811.818 651.174 803.554C668.295 794.395 685.439 784.979 702.606 775.307C719.834 765.512 737.13 755.865 754.494 746.363C771.996 737.546 789.581 729.225 807.25 721.401C825.147 714.814 843.159 708.899 861.284 703.656C879.668 699.764 898.19 696.487 916.848 693.825C935.826 692.164 954.956 690.853 974.238 689.893C993.855 689.266 1013.63 688.602 1033.57 687.902C1053.84 686.754 1074.27 685.207 1094.86 683.261C1115.77 680.265 1136.83 676.654 1158.03 672.429C1179.49 666.909 1201.08 660.766 1222.81 654C1244.74 646.152 1266.76 637.892 1288.88 629.221C1311.13 620.037 1333.42 610.78 1355.76 601.45C1378.17 592.355 1400.57 583.55 1422.97 575.034C1445.33 567.389 1467.63 560.29 1489.88 553.735C1511.99 548.378 1534 543.628 1555.9 539.484C1577.57 536.463 1599.09 533.902 1620.46 531.802C1641.49 530.353 1662.34 529.07 1683.01 527.955C1703.26 526.807 1723.3 525.476 1743.11 523.961C1762.47 521.763 1781.58 519.105 1800.46 515.987C1804.99 507.112 1791.96 500.693 1761.37 496.728C1745.81 494.358 1730.23 491.79 1714.65 489.021C1699.06 486.001 1683.48 482.944 1667.92 479.85C1652.33 476.854 1636.75 473.992 1621.16 471.264C1605.6 468.96 1590.02 466.933 1574.43 465.183C1558.85 464.084 1543.27 463.343 1527.71 462.96C1512.12 463.302 1496.54 464.006 1480.95 465.073Z" fill="url(#paint2_linear_27_451)"/>
</g>
</g>
<defs>
<filter id="filter0_f_27_451" x="-333.508" y="-188.598" width="1775.51" height="692.638" filterUnits="userSpaceOnUse" color-interpolation-filters="sRGB">
<feFlood flood-opacity="0" result="BackgroundImageFix"/>
<feBlend mode="normal" in="SourceGraphic" in2="BackgroundImageFix" result="shape"/>
<feGaussianBlur stdDeviation="1" result="effect1_foregroundBlur_27_451"/>
</filter>
<filter id="filter1_f_27_451" x="-26.7895" y="460.96" width="1830.12" height="638.061" filterUnits="userSpaceOnUse" color-interpolation-filters="sRGB">
<feFlood flood-opacity="0" result="BackgroundImageFix"/>
<feBlend mode="normal" in="SourceGraphic" in2="BackgroundImageFix" result="shape"/>
<feGaussianBlur stdDeviation="1" result="effect1_foregroundBlur_27_451"/>
</filter>
<linearGradient id="paint0_linear_27_451" x1="756.419" y1="-42.853" x2="641.447" y2="1175.96" gradientUnits="userSpaceOnUse">
<stop offset="0.1" stop-color="#030104"/>
<stop offset="0.9" stop-color="#452277"/>
</linearGradient>
<linearGradient id="paint1_linear_27_451" x1="395.469" y1="273.535" x2="-820.496" y2="592.974" gradientUnits="userSpaceOnUse">
<stop offset="0.25" stop-color="#290062"/>
<stop offset="1" stop-color="#452277"/>
</linearGradient>
<linearGradient id="paint2_linear_27_451" x1="839.618" y1="-499.317" x2="2023.75" y2="-537.953" gradientUnits="userSpaceOnUse">
<stop stop-color="#251141"/>
<stop offset="0.75" stop-color="#452277"/>
</linearGradient>
<clipPath id="clip0_27_451">
<rect width="1461" height="977" fill="white" transform="translate(-21 -6)"/>
</clipPath>
</defs>
</svg>
