<svg xmlns="http://www.w3.org/2000/svg" fill="none" width="480" height="666" viewBox="0 0 4800 6660">
  <g clip-path="url(#a)">
    <path d="M-490-660a8740 8740 0 00 350 60 2570 2570 0 00 350-10 5600 5600 0 00 530-110 2840 2840 0 01 350-10 3780 3780 0 01 530 110 3420 3420 0 00 350 30 2950 2950 0 00 700-130 2790 2790 0 01 350-10 3700 3700 0 01 530 110 3350 3350 0 00 350 30 2950 2950 0 00 700-130 2890 2890 0 01 350-10l180 30 30 250a4640 4640 0 00 240 740l50 250v250a3080 3080 0 01-220 740l-70 250-30 240 20 250a3690 3690 0 00 230 750l60 240 10 250-30 250a4760 4760 0 01-240 740l-50 250 10 250a3160 3160 0 00 210 740l70 250c20 80 30 170 30 250l-20 250a3790 3790 0 01-230 740l-180-80-170-20-180 40a2420 2420 0 00-360 200l-180 100-170 50-180-10a1560 1560 0 01-360-170 6700 6700 0 00-350-190l-180-20-180 40a2410 2410 0 00-350 200l-180 100-180 50-180-10a1570 1570 0 01-350-170 6890 6890 0 00-360-190l-170-20-180 40a2420 2420 0 00-360 200l-180 100-170 50-180-10a1570 1570 0 01-360-180 104290 104290 0 01 20-1240 59520 59520 0 00-20-1250 41480 41480 0 01 20-1500 51940 51940 0 00-20-1500 69250 69250 0 01 20-1250 46070 46070 0 00-20-1250Z" fill="url(#b)"/>
    <g filter="url(#c)">
      <path d="M-490-660a41560 41560 0 00 20 1500 46060 46060 0 01-20 1500 59480 59480 0 00 20 1000l240 90 250 30a1420 1420 0 00 310-270 13260 13260 0 00 430-470 4130 4130 0 01 280-240 2400 2400 0 01 280-130 15310 15310 0 01 420-170 3210 3210 0 00 310-200 7530 7530 0 00 650-590 5440 5440 0 01 350-240 4040 4040 0 01 830-350 2990 2990 0 00 300-190 4100 4100 0 00 630-680l-90-290-50-290v-290l60-280a4260 4260 0 00-550 100 3640 3640 0 01-370 20 3640 3640 0 01-550-100 4290 4290 0 00-370-30 3260 3260 0 00-370 50l-180 30a5560 5560 0 01-370 50 3090 3090 0 01-360-30 17910 17910 0 01-560-100 3030 3030 0 00-360 20 8270 8270 0 00-560 100 2990 2990 0 01-360-10 5710 5710 0 01-560-100l-180-10c-60 20-70 60-20 120a5540 5540 0 01 500 450Z" fill="url(#d)"/>
    </g>
    <g filter="url(#e)">
      <path d="m4940 3210 250-10 250 60 10 250-30 250a4760 4760 0 01-240 740l-50 250 10 250a3160 3160 0 00 210 740l70 250c20 80 30 170 30 250l-20 250a3790 3790 0 01-230 740l-160-70-170-30-160 30a1810 1810 0 00-320 170 6060 6060 0 01-330 160l-160 30-170-30a1860 1860 0 01-320-160 6190 6190 0 00-330-170l-160-30-170 30a1860 1860 0 00-320 170 5870 5870 0 01-330 160c-50 20-110 30-160 30l-170-30a1900 1900 0 01-320-170 5770 5770 0 00-330-160c-50-20-110-20-160-30l-160 30a1890 1890 0 00-330 170 5620 5620 0 01-330 170c-80-20-130-70-150-150a190750 190750 0 01 30-510l190-130a5140 5140 0 00 580-590l190-150c60-40 130-70 190-90a1590 1590 0 01 360-40l170-10 170-50 170-100a2970 2970 0 00 510-550l180-170 170-120 190-70a2500 2500 0 01 380-40l200-30 210-80a2970 2970 0 00 650-480 8890 8890 0 01 440-320l220-100a2730 2730 0 01 620-110l190-50c10-60-30-110-130-130a3440 3440 0 01-460-180l-160-40-150-10-160 10Z" fill="url(#f)"/>
    </g>
  </g>
  <defs>
    <linearGradient id="b" x1="2560" x2="980" y1="-250" y2="7820" gradientUnits="userSpaceOnUse">
      <stop offset="0" stop-color="#9061D1"/>
      <stop offset="1" stop-color="#452277"/>
    </linearGradient>
    <linearGradient id="d" x1="1370" x2="-2840" y1="1910" y2="2440" gradientUnits="userSpaceOnUse">
      <stop offset="0" stop-color="#9061D1"/>
      <stop offset="1" stop-color="#452277"/>
    </linearGradient>
    <linearGradient id="f" x1="2830" x2="6740" y1="-3360" y2="-3420" gradientUnits="userSpaceOnUse">
      <stop stop-color="#9061D1"/>
      <stop offset="1" stop-color="#452277"/>
    </linearGradient>
    <filter id="c" width="5870" height="4730" x="-1040" y="-1250" color-interpolation-filters="sRGB" filterUnits="userSpaceOnUse">
      <feFlood flood-opacity="0" result="BackgroundImageFix"/>
      <feBlend in="SourceGraphic" in2="BackgroundImageFix" mode="normal" result="shape"/>
      <feGaussianBlur result="effect1_foregroundBlur_14_91" stdDeviation="1"/>
    </filter>
    <filter id="e" width="6050" height="4360" x="-30" y="3180" color-interpolation-filters="sRGB" filterUnits="userSpaceOnUse">
      <feFlood flood-opacity="0" result="BackgroundImageFix"/>
      <feBlend in="SourceGraphic" in2="BackgroundImageFix" mode="normal" result="shape"/>
      <feGaussianBlur result="effect1_foregroundBlur_14_91" stdDeviation="1"/>
    </filter>
    <clipPath id="a">
      <path d="M0 0h4810v6660H0" fill="#fff"/>
    </clipPath>
  </defs>
</svg>
