<svg xmlns="http://www.w3.org/2000/svg" class="iconLeft" viewBox="0 0 3000 3000">
  <path d="M0 0h3000v3000H0" fill="transparent" class="logo-background-square"/>
  <path d="m1313 1454 3-6-3-6h-9l-14-6h-12l-6 6q-6 0-6 12 0 9 6 15 3 8 12 11l15 10 17 2 18 6 18 10q15 10 15 29 0 20-18 40-18 16-45 27-23 10-40 10-24 0-40-10-5-2-5-8l6-12 12-10 14-5 12-9q-6 3-6 10 0 5 10 8l10 6 27 3q12 0 18-6 6-3 6-15l-6-18q-3-6-12-9l-14-8-18-10-18-5-18-6q-14-12-14-30 0-14 20-30 15-17 33-26 30-14 44-14l24 3 9 5-3 6-3 3-6 3-6 6-12 6-15 12Zm65-12q36-30 60-30 14 0 17 18v12l30-18q17-11 35-11t33 5q14 10 23 21 15 20 15 60 0 43-38 79-24 20-57 30l-23 5h-18v60q0 20-15 32h50l-5 6-12 9-20 11h-51q15-17 15-40v-225l-3-18q-6-9-18-9l-18 3Zm77 18v97q18 30 53 30 39 0 42-39v-53l-12-30q-18-26-53-26-18 0-30 20Zm301 9v94q0 18 10 20h20q-6 0-12 10l-12 9q-15 11-30 11t-14-17v-10q-38 27-68 27-27 0-35-14l-3-18 6-18 14-20q18-15 42-24 17-10 44-10v-8q0-30-6-44-6-12-15-15l-23-6q-21 0-36 9l30-27q23-11 41-11 18 0 24 6l14 14q10 12 10 42Zm-94 109q3 6 12 6h17l27-3v-44h-36l-30 2-5 18 3 12 9 9Zm165-142h-26l30-20v-30l10-12 10-6 6-3 12-6v48h62l-12 8q-20 21-27 21h-26v106q0 39 23 45h27l12-6q-12 18-36 30l-23 2-21-3q-10-6-12-14-9-12-9-36v-124Zm139-142 38-30v48l-6 6-32 20v-44Zm80 290-12 12q-3 6-12 8-15 10-30 10l-14-4q-12-8-12-30v-90q0-24-6-30h-27l18-15 15-9 18-12 23-14v168q10 9 30 9h9Zm138-142q33-30 48-30t14 21V1560q0 12 6 18 6 9 18 9l18-6-12 9-12 9q-15 14-32 14-20 0-24-20v-15q-44 32-77 32-23 0-35-20-12-18-12-50v-86q-9-12-24-12l-11 3 38-30h15q23 0 23 30v86q0 30 10 44 11 15 38 15 14 0 30-12l5-6v-110q0-14-6-20h-18Zm280 6q45-35 69-35 15 0 24 14 8 12 8 30v118q6 12 24 12l15-3-27 18q-15 11-30 11-8 0-14-6l-6-8v-110q0-20-6-30l-12-14-12-6H2480l-6 9q-12 15-12 47v80q9 12 20 12l18-3-26 18q-15 11-30 11-9 0-14-6l-6-8v-110q0-20-6-30l-12-14q-6-6-15-6l-12 3-9 9-5 12v14l-3 24v62q0 15 6 18l8 3h10l-33 23-18 3q-15 0-15-17v-140q-3-14-23-14l-15 3 12-9q17-15 23-15l21-5 15 2 6 10v23q30-20 53-30l15-5 14 2 10 10q8 8 11 23Z" fill="#000"/>
  <defs>
    <linearGradient id="a" x1="0%" x2="1000%" y1="0%" y2="0%" gradientTransform="rotate(25)">
      <stop offset="0%" stop-color="#0076DD" stop-opacity="1"/>
      <stop offset="100%" stop-color="#E600E9" stop-opacity="1"/>
    </linearGradient>
  </defs>
  <g fill="url(#a)" stroke="none" transform="translate( 373 1118) scale(.7816)">
    <path d="M846 43a72 72 0 00-71 83c-41 27-95 70-156 123a320 320 0 00-138-31 320 320 0 00-120 23c-85-44-150-49-184-15-36 36-26 103 12 180a320 320 0 00-30 134c0 50 12 96 32 138-185 214-160 240-150 250a30 30 0 00 20 8c18 0 47-14 101-52 34-25 73-56 117-94a320 320 0 00 202 71 320 320 0 00 144-34 230 230 0 00 90 22c27 0 48-7 63-22 30-30 30-85-2-158a320 320 0 00 27-130 320 320 0 00-71-200c51-60 93-113 119-153a72 72 0 00 66-72 72 72 0 00-71-71zM689 339a4423 4423 0 01-196 207 5235 5235 0 01-36 37 86 86 0 00-100 0 873 873 0 01-132-178A290 290 0 01 690 340zM353 653a54 54 0 01 54-54 54 54 0 01 54 54 54 54 0 01-54 54 54 54 0 01-54-54zM200 250c20-20 65-16 124 10a324 324 0 00-116 110c-25-57-27-100-8-120zm134 359a86 86 0 00 0 90 3674 3674 0 01-54 49 288 288 0 01-71-305 972 972 0 00 125 166zM68 902c7-21 41-79 140-193a324 324 0 00 47 60A793 793 0 01 68 901zm413-73a288 288 0 01-177-60 3500 3500 0 00 52-46 86 86 0 00 51 17 86 86 0 00 50-17c46 36 90 65 130 86a288 288 0 01-106 20zm274-25c-15 15-48 17-93 2a324 324 0 00 94-99c15 46 15 80-1 97zM770 540a290 290 0 01-146 250c-41-18-90-48-144-90a86 86 0 00 0-94 5116 5116 0 00 36-37c72-71 138-142 194-206A288 288 0 01 770 540zM650 266a1710 1710 0 01 138-110 72 72 0 00 28 23C790 216 755 262 710 314a323 323 0 00-60-48zm196-112a40 40 0 01-40-40 40 40 0 01 40-39 40 40 0 01 39 40 40 40 0 01-40 39"/>
    <circle cx="844" cy="361" r="29"/>
    <circle cx="630" cy="640" r="59"/>
    <circle cx="422" cy="776" r="12"/>
    <circle cx="706" cy="470" r="12"/>
    <circle cx="410" cy="324" r="19"/>
    <circle cx="247" cy="622" r="19"/>
    <circle cx="424" cy="470" r="33"/>
  </g>
</svg>
